<svg width="400" height="57" viewBox="0 0 400 57" fill="none" xmlns="http://www.w3.org/2000/svg">
<path d="M25.416 42.36H25.736C26.0347 42.36 26.312 42.2533 26.568 42.04C26.824 41.784 27.0373 41.4853 27.208 41.144C27.4213 40.76 27.5707 40.376 27.656 39.992C27.7413 39.5653 27.784 39.1813 27.784 38.84V21.432H7.304V38.84C7.304 39.1813 7.34667 39.5653 7.432 39.992C7.51733 40.376 7.64533 40.7387 7.816 41.08C7.98667 41.4213 8.17867 41.72 8.392 41.976C8.648 42.232 8.94667 42.36 9.288 42.36H9.608V43H0.648V42.36H0.968C1.26667 42.36 1.544 42.2533 1.8 42.04C2.056 41.784 2.26933 41.4853 2.44 41.144C2.65333 40.76 2.80267 40.376 2.888 39.992C2.97333 39.5653 3.016 39.1813 3.016 38.84V4.728C3.016 4.42933 2.97333 4.088 2.888 3.704C2.80267 3.32 2.67467 2.95733 2.504 2.616C2.33333 2.27466 2.12 1.99733 1.864 1.784C1.608 1.528 1.30933 1.4 0.968 1.4H0.648V0.759998H9.608V1.4H9.288C8.94667 1.4 8.648 1.528 8.392 1.784C8.136 1.99733 7.92267 2.27466 7.752 2.616C7.624 2.95733 7.51733 3.32 7.432 3.704C7.34667 4.088 7.304 4.42933 7.304 4.728V19.192H27.784V4.728C27.784 4.42933 27.7413 4.088 27.656 3.704C27.5707 3.32 27.4427 2.95733 27.272 2.616C27.1013 2.27466 26.888 1.99733 26.632 1.784C26.376 1.528 26.0773 1.4 25.736 1.4H25.416V0.759998H34.376V1.4H34.056C33.7147 1.4 33.416 1.528 33.16 1.784C32.904 1.99733 32.6907 2.27466 32.52 2.616C32.392 2.95733 32.2853 3.32 32.2 3.704C32.1147 4.088 32.072 4.42933 32.072 4.728V38.84C32.072 39.1813 32.1147 39.5653 32.2 39.992C32.328 40.376 32.4773 40.7387 32.648 41.08C32.8187 41.4213 33.0107 41.72 33.224 41.976C33.48 42.232 33.7573 42.36 34.056 42.36H34.376V43H25.416V42.36ZM41.8685 0.759998H51.0205V1.4H50.7005C50.4018 1.4 50.1245 1.528 49.8685 1.784C49.6125 1.99733 49.3992 2.27466 49.2285 2.616C49.0578 2.91467 48.9085 3.27733 48.7805 3.704C48.6952 4.088 48.6525 4.42933 48.6525 4.728V38.84C48.6525 39.1813 48.6952 39.5653 48.7805 39.992C48.8658 40.376 48.9938 40.7387 49.1645 41.08C49.3778 41.4213 49.5912 41.72 49.8045 41.976C50.0605 42.232 50.3592 42.36 50.7005 42.36H51.0205V43H41.8685V42.36H42.1885C42.5298 42.36 42.8285 42.2533 43.0845 42.04C43.3405 41.784 43.5538 41.4853 43.7245 41.144C43.9378 40.76 44.0872 40.376 44.1725 39.992C44.2578 39.5653 44.3005 39.1813 44.3005 38.84V4.728C44.3005 4.42933 44.2578 4.088 44.1725 3.704C44.0872 3.32 43.9378 2.95733 43.7245 2.616C43.5538 2.27466 43.3405 1.99733 43.0845 1.784C42.8285 1.528 42.5298 1.4 42.1885 1.4H41.8685V0.759998ZM86.615 20.728H95.767V21.368H95.447C95.1057 21.368 94.807 21.496 94.551 21.752C94.295 21.9653 94.0817 22.2427 93.911 22.584C93.7403 22.9253 93.591 23.288 93.463 23.672C93.3777 24.056 93.335 24.3973 93.335 24.696V41.848C92.567 42.1467 91.6923 42.4027 90.711 42.616C89.7297 42.8293 88.7057 43 87.639 43.128C86.5723 43.2987 85.4843 43.4267 84.375 43.512C83.2657 43.5973 82.2417 43.64 81.303 43.64C77.463 43.64 74.1137 43 71.255 41.72C68.3963 40.44 66.0283 38.776 64.151 36.728C62.2737 34.6373 60.8657 32.2907 59.927 29.688C59.031 27.0853 58.583 24.4613 58.583 21.816C58.583 19.1707 59.031 16.5467 59.927 13.944C60.8657 11.3413 62.2737 9.016 64.151 6.968C66.071 4.92 68.4603 3.27733 71.319 2.04C74.2203 0.759998 77.655 0.119999 81.623 0.119999C83.1163 0.119999 84.503 0.247999 85.783 0.503998C87.063 0.759997 88.1937 0.994663 89.175 1.208C89.7297 1.336 90.199 1.464 90.583 1.592C91.0097 1.67733 91.3723 1.72 91.671 1.72H92.247V8.504H91.607C91.351 7.18133 90.839 6.11466 90.071 5.304C89.3457 4.49333 88.4923 3.87466 87.511 3.448C86.5297 3.02133 85.4843 2.744 84.375 2.616C83.3083 2.44533 82.3057 2.36 81.367 2.36C78.167 2.36 75.3937 2.936 73.047 4.088C70.7003 5.19733 68.7803 6.648 67.287 8.44C65.7937 10.232 64.6843 12.2587 63.959 14.52C63.2337 16.7387 62.871 18.9573 62.871 21.176C62.871 23.6507 63.3403 26.104 64.279 28.536C65.2177 30.9253 66.5403 33.08 68.247 35C69.9537 36.8773 72.0017 38.4133 74.391 39.608C76.823 40.76 79.511 41.336 82.455 41.336C83.2657 41.336 84.2683 41.2507 85.463 41.08C86.6577 40.8667 87.8523 40.4187 89.047 39.736V24.696C89.047 24.3973 89.0043 24.056 88.919 23.672C88.8337 23.288 88.6843 22.9253 88.471 22.584C88.3003 22.2427 88.087 21.9653 87.831 21.752C87.575 21.496 87.2763 21.368 86.935 21.368H86.615V20.728ZM128.614 42.36H128.934C129.232 42.36 129.51 42.2533 129.766 42.04C130.022 41.784 130.235 41.4853 130.406 41.144C130.619 40.76 130.768 40.376 130.854 39.992C130.939 39.5653 130.982 39.1813 130.982 38.84V21.432H110.502V38.84C110.502 39.1813 110.544 39.5653 110.63 39.992C110.715 40.376 110.843 40.7387 111.014 41.08C111.184 41.4213 111.376 41.72 111.59 41.976C111.846 42.232 112.144 42.36 112.486 42.36H112.806V43H103.846V42.36H104.166C104.464 42.36 104.742 42.2533 104.998 42.04C105.254 41.784 105.467 41.4853 105.638 41.144C105.851 40.76 106 40.376 106.086 39.992C106.171 39.5653 106.214 39.1813 106.214 38.84V4.728C106.214 4.42933 106.171 4.088 106.086 3.704C106 3.32 105.872 2.95733 105.702 2.616C105.531 2.27466 105.318 1.99733 105.062 1.784C104.806 1.528 104.507 1.4 104.166 1.4H103.846V0.759998H112.806V1.4H112.486C112.144 1.4 111.846 1.528 111.59 1.784C111.334 1.99733 111.12 2.27466 110.95 2.616C110.822 2.95733 110.715 3.32 110.63 3.704C110.544 4.088 110.502 4.42933 110.502 4.728V19.192H130.982V4.728C130.982 4.42933 130.939 4.088 130.854 3.704C130.768 3.32 130.64 2.95733 130.47 2.616C130.299 2.27466 130.086 1.99733 129.83 1.784C129.574 1.528 129.275 1.4 128.934 1.4H128.614V0.759998H137.574V1.4H137.254C136.912 1.4 136.614 1.528 136.358 1.784C136.102 1.99733 135.888 2.27466 135.718 2.616C135.59 2.95733 135.483 3.32 135.398 3.704C135.312 4.088 135.27 4.42933 135.27 4.728V38.84C135.27 39.1813 135.312 39.5653 135.398 39.992C135.526 40.376 135.675 40.7387 135.846 41.08C136.016 41.4213 136.208 41.72 136.422 41.976C136.678 42.232 136.955 42.36 137.254 42.36H137.574V43H128.614V42.36ZM165.275 0.759998H174.491V1.4H174.171C173.83 1.4 173.531 1.528 173.275 1.784C173.019 1.99733 172.784 2.296 172.571 2.68C172.4 3.02133 172.251 3.384 172.123 3.768C172.038 4.152 171.995 4.49333 171.995 4.792V40.44C171.995 41.8053 171.824 43.064 171.483 44.216C171.142 45.368 170.672 46.4347 170.075 47.416C169.52 48.44 168.88 49.3573 168.155 50.168C167.472 51.0213 166.747 51.7893 165.979 52.472C164.23 54.0507 162.224 55.3733 159.963 56.44L159.643 55.928C161.136 54.8613 162.459 53.6027 163.611 52.152C164.592 50.9147 165.51 49.4 166.363 47.608C167.216 45.816 167.643 43.7467 167.643 41.4V4.792C167.643 4.49333 167.6 4.152 167.515 3.768C167.43 3.384 167.28 3.02133 167.067 2.68C166.896 2.296 166.683 1.99733 166.427 1.784C166.171 1.528 165.894 1.4 165.595 1.4H165.275V0.759998ZM182.525 42.36H182.845C183.186 42.36 183.485 42.2533 183.741 42.04C183.997 41.784 184.21 41.4853 184.381 41.144C184.594 40.8027 184.744 40.44 184.829 40.056C184.957 39.672 185.021 39.3093 185.021 38.968V4.728C185.021 4.42933 184.957 4.088 184.829 3.704C184.744 3.32 184.594 2.95733 184.381 2.616C184.21 2.27466 183.997 1.99733 183.741 1.784C183.485 1.528 183.186 1.4 182.845 1.4H182.525V0.759998H207.165V6.712H206.525C206.44 5.73066 206.056 4.87733 205.373 4.152C204.69 3.384 203.624 3 202.173 3H189.309V19.192H199.933C200.914 19.192 201.725 18.8933 202.365 18.296C203.048 17.6987 203.389 16.9947 203.389 16.184H204.029V24.184H203.389C203.389 23.416 203.069 22.7547 202.429 22.2C201.789 21.6453 200.957 21.368 199.933 21.368H189.309V40.76H203.325C204.136 40.76 204.84 40.568 205.437 40.184C206.034 39.8 206.525 39.352 206.909 38.84C207.336 38.2853 207.634 37.7093 207.805 37.112C208.018 36.472 208.125 35.9387 208.125 35.512H208.765V43H182.525V42.36ZM263.252 1.4C262.398 1.4 261.673 1.76266 261.076 2.488C260.478 3.21333 260.073 4.00266 259.86 4.856L248.212 43.256L238.228 11.768L228.244 43.32L216.532 4.92C216.318 4.10933 215.934 3.32 215.38 2.552C214.868 1.784 214.27 1.4 213.588 1.4V0.759998H222.676V1.4C222.121 1.4 221.652 1.63466 221.268 2.104C220.926 2.53067 220.756 3.08533 220.756 3.768C220.756 3.98133 220.798 4.25866 220.884 4.6L229.204 31.736L239.38 0.375999L249.172 31.672L257.62 4.6C257.62 4.51466 257.641 4.344 257.684 4.088C257.769 3.78933 257.812 3.55467 257.812 3.384C257.812 2.78667 257.641 2.31733 257.3 1.976C256.958 1.592 256.617 1.4 256.276 1.4V0.759998H263.252V1.4ZM268.99 42.36H269.31C269.651 42.36 269.95 42.2533 270.206 42.04C270.462 41.784 270.675 41.4853 270.846 41.144C271.059 40.8027 271.209 40.44 271.294 40.056C271.422 39.672 271.486 39.3093 271.486 38.968V4.728C271.486 4.42933 271.422 4.088 271.294 3.704C271.209 3.32 271.059 2.95733 270.846 2.616C270.675 2.27466 270.462 1.99733 270.206 1.784C269.95 1.528 269.651 1.4 269.31 1.4H268.99V0.759998H293.63V6.712H292.99C292.905 5.73066 292.521 4.87733 291.838 4.152C291.155 3.384 290.089 3 288.638 3H275.774V19.192H286.398C287.379 19.192 288.19 18.8933 288.83 18.296C289.513 17.6987 289.854 16.9947 289.854 16.184H290.494V24.184H289.854C289.854 23.416 289.534 22.7547 288.894 22.2C288.254 21.6453 287.422 21.368 286.398 21.368H275.774V40.76H289.79C290.601 40.76 291.305 40.568 291.902 40.184C292.499 39.8 292.99 39.352 293.374 38.84C293.801 38.2853 294.099 37.7093 294.27 37.112C294.483 36.472 294.59 35.9387 294.59 35.512H295.23V43H268.99V42.36ZM301.972 42.36H302.292C302.634 42.36 302.932 42.2533 303.188 42.04C303.444 41.784 303.658 41.4853 303.828 41.144C304.042 40.8027 304.191 40.44 304.276 40.056C304.404 39.672 304.468 39.3093 304.468 38.968V4.728C304.468 4.42933 304.404 4.088 304.276 3.704C304.191 3.32 304.042 2.95733 303.828 2.616C303.658 2.27466 303.444 1.99733 303.188 1.784C302.932 1.528 302.634 1.4 302.292 1.4H301.972V0.759998H311.188V1.4H310.868C310.527 1.4 310.228 1.528 309.972 1.784C309.716 1.99733 309.503 2.27466 309.332 2.616C309.162 2.95733 309.012 3.32 308.884 3.704C308.799 4.088 308.756 4.42933 308.756 4.728V40.632H322.772C323.583 40.632 324.287 40.44 324.885 40.056C325.482 39.672 325.973 39.2027 326.357 38.648C326.783 38.0507 327.082 37.432 327.253 36.792C327.466 36.1093 327.573 35.4907 327.573 34.936H328.212V43H301.972V42.36ZM342.347 42.36H342.667V43H333.643V42.36H333.963C334.261 42.36 334.539 42.232 334.795 41.976C335.051 41.72 335.264 41.4213 335.435 41.08C335.648 40.7387 335.797 40.376 335.883 39.992C335.968 39.5653 336.011 39.1813 336.011 38.84V4.728C336.011 4.42933 335.968 4.088 335.883 3.704C335.797 3.32 335.648 2.95733 335.435 2.616C335.264 2.27466 335.051 1.99733 334.795 1.784C334.539 1.528 334.261 1.4 333.963 1.4H333.643V0.759998H344.779C349.045 0.759998 352.331 1.592 354.635 3.256C356.981 4.92 358.155 7.37333 358.155 10.616C358.155 12.2373 357.877 13.6667 357.323 14.904C356.811 16.0987 356.107 17.144 355.211 18.04C354.315 18.8933 353.248 19.5973 352.011 20.152C350.816 20.664 349.536 21.048 348.171 21.304L352.779 28.344C353.888 30.0507 355.019 31.736 356.171 33.4C357.323 35.0213 358.453 36.7067 359.563 38.456C359.861 38.8827 360.181 39.3307 360.523 39.8C360.907 40.2693 361.291 40.696 361.675 41.08C362.101 41.464 362.528 41.784 362.955 42.04C363.424 42.2533 363.893 42.36 364.363 42.36V43H361.611C359.904 43 358.496 42.5947 357.387 41.784C356.32 40.9307 355.424 39.9493 354.699 38.84C352.779 36.024 350.859 33.1653 348.939 30.264C347.061 27.3627 345.184 24.504 343.307 21.688C342.837 21.6453 342.325 21.6027 341.771 21.56C341.259 21.4747 340.768 21.3893 340.299 21.304V38.84C340.299 39.1813 340.341 39.5653 340.427 39.992C340.512 40.376 340.64 40.7387 340.811 41.08C341.024 41.4213 341.237 41.72 341.451 41.976C341.707 42.232 342.005 42.36 342.347 42.36ZM340.299 2.936V19.192H340.619C340.96 19.2347 341.493 19.2773 342.219 19.32C342.987 19.32 343.925 19.32 345.035 19.32C345.931 19.32 346.869 19.192 347.851 18.936C348.875 18.6373 349.813 18.168 350.667 17.528C351.563 16.8453 352.288 15.9707 352.843 14.904C353.44 13.8373 353.739 12.4933 353.739 10.872C353.739 9.25067 353.419 7.928 352.779 6.904C352.181 5.88 351.328 5.06933 350.219 4.472C349.152 3.87466 347.851 3.46933 346.315 3.256C344.779 3.04266 343.093 2.936 341.259 2.936H340.299ZM367.437 0.759998H376.269V1.4C375.97 1.44266 375.693 1.57066 375.437 1.784C375.181 1.99733 375.053 2.31733 375.053 2.744C375.053 2.95733 375.117 3.192 375.245 3.448L384.845 20.28L394.061 4.344C394.232 4.00266 394.338 3.74666 394.381 3.576C394.466 3.40533 394.509 3.192 394.509 2.936C394.424 2.25333 394.168 1.82667 393.741 1.656C393.357 1.48533 393.122 1.4 393.037 1.4V0.759998H399.885V1.4C399.245 1.4 398.584 1.80533 397.901 2.616C397.261 3.384 396.706 4.17333 396.237 4.984L386.253 22.264V38.84C386.253 39.1813 386.296 39.544 386.381 39.928C386.509 40.312 386.658 40.696 386.829 41.08C387 41.4213 387.213 41.72 387.469 41.976C387.725 42.232 388.024 42.36 388.365 42.36H388.685V43H379.533V42.36H379.853C380.194 42.36 380.493 42.2533 380.749 42.04C381.005 41.784 381.218 41.4853 381.389 41.144C381.602 40.76 381.752 40.376 381.837 39.992C381.922 39.5653 381.965 39.1813 381.965 38.84V22.84L371.661 5.176C371.448 4.83466 371.192 4.45066 370.893 4.024C370.594 3.59733 370.274 3.192 369.933 2.808C369.592 2.424 369.229 2.104 368.845 1.848C368.461 1.54933 368.098 1.4 367.757 1.4H367.437V0.759998Z" fill="#272727"/>
</svg>
